<?xml version="1.0" encoding="utf-8"?><!-- Uploaded to: SVG Repo, www.svgrepo.com, Generator: SVG Repo Mixer Tools -->
<svg fill="#000000" width="800px" height="800px" viewBox="0 0 24 24" id="garage-car" data-name="Flat Color" xmlns="http://www.w3.org/2000/svg" class="icon flat-color"><path id="secondary" d="M16.83,14.18l-.67-2.66A2,2,0,0,0,14.22,10H9.78a2,2,0,0,0-1.94,1.52l-.67,2.66A2,2,0,0,0,6,16v3a1,1,0,0,0,1,1,2,2,0,0,0,4,0h2a2,2,0,0,0,4,0,1,1,0,0,0,1-1V16A2,2,0,0,0,16.83,14.18ZM10,18H8V16h8v2H10Z" style="fill: rgb(44, 169, 188);"></path><path id="primary" d="M21,22a1,1,0,0,1-1-1V7.65L12,4.09,4,7.65V21a1,1,0,0,1-2,0V7.65A2,2,0,0,1,3.19,5.82l8.4-3.73a1,1,0,0,1,.82,0l8.4,3.73A2,2,0,0,1,22,7.65V21A1,1,0,0,1,21,22Z" style="fill: rgb(0, 0, 0);"></path></svg>